<svg xmlns="http://www.w3.org/2000/svg" xmlns:xlink="http://www.w3.org/1999/xlink" width="1080" zoomAndPan="magnify" viewBox="0 0 810 809.999993" height="1080" preserveAspectRatio="xMidYMid meet" version="1.0"><defs><g/></defs><g fill="#ffffff" fill-opacity="1"><g transform="translate(193.680667, 391.269581)"><g><path d="M 38.75 1.015625 C 32.21875 1.015625 26.460938 -0.335938 21.484375 -3.046875 C 16.503906 -5.765625 12.609375 -9.847656 9.796875 -15.296875 C 6.984375 -20.753906 5.578125 -27.472656 5.578125 -35.453125 C 5.578125 -43.441406 6.984375 -50.160156 9.796875 -55.609375 C 12.609375 -61.054688 16.503906 -65.140625 21.484375 -67.859375 C 26.460938 -70.578125 32.21875 -71.9375 38.75 -71.9375 C 45.582031 -71.9375 51.378906 -70.601562 56.140625 -67.9375 C 60.910156 -65.269531 64.316406 -61.203125 66.359375 -55.734375 L 56.125 -49.484375 L 54.90625 -49.53125 C 53.382812 -53.21875 51.320312 -55.859375 48.71875 -57.453125 C 46.125 -59.054688 42.800781 -59.859375 38.75 -59.859375 C 32.863281 -59.859375 28.269531 -57.910156 24.96875 -54.015625 C 21.675781 -50.117188 20.03125 -43.929688 20.03125 -35.453125 C 20.03125 -27.015625 21.675781 -20.847656 24.96875 -16.953125 C 28.269531 -13.054688 32.863281 -11.109375 38.75 -11.109375 C 47.96875 -11.109375 53.613281 -15.585938 55.6875 -24.546875 L 56.90625 -24.546875 L 67.234375 -19.15625 C 65.296875 -12.4375 61.976562 -7.394531 57.28125 -4.03125 C 52.59375 -0.664062 46.414062 1.015625 38.75 1.015625 Z M 38.75 1.015625 "/></g></g></g><g fill="#ffffff" fill-opacity="1"><g transform="translate(263.229752, 391.269581)"><g><path d="M 38.65625 1.015625 C 32.15625 1.015625 26.421875 -0.304688 21.453125 -2.953125 C 16.492188 -5.609375 12.609375 -9.660156 9.796875 -15.109375 C 6.984375 -20.554688 5.578125 -27.335938 5.578125 -35.453125 C 5.578125 -43.578125 6.984375 -50.363281 9.796875 -55.8125 C 12.609375 -61.257812 16.492188 -65.304688 21.453125 -67.953125 C 26.421875 -70.609375 32.15625 -71.9375 38.65625 -71.9375 C 45.15625 -71.9375 50.878906 -70.617188 55.828125 -67.984375 C 60.773438 -65.347656 64.644531 -61.296875 67.4375 -55.828125 C 70.238281 -50.367188 71.640625 -43.578125 71.640625 -35.453125 C 71.640625 -27.335938 70.238281 -20.546875 67.4375 -15.078125 C 64.644531 -9.617188 60.773438 -5.570312 55.828125 -2.9375 C 50.878906 -0.300781 45.15625 1.015625 38.65625 1.015625 Z M 38.65625 -11.15625 C 44.675781 -11.15625 49.269531 -13.085938 52.4375 -16.953125 C 55.601562 -20.816406 57.1875 -26.984375 57.1875 -35.453125 C 57.1875 -43.929688 55.601562 -50.109375 52.4375 -53.984375 C 49.269531 -57.867188 44.675781 -59.8125 38.65625 -59.8125 C 32.613281 -59.8125 28 -57.867188 24.8125 -53.984375 C 21.625 -50.109375 20.03125 -43.929688 20.03125 -35.453125 C 20.03125 -26.984375 21.625 -20.816406 24.8125 -16.953125 C 28 -13.085938 32.613281 -11.15625 38.65625 -11.15625 Z M 38.65625 -11.15625 "/></g></g></g><g fill="#ffffff" fill-opacity="1"><g transform="translate(340.490345, 391.269581)"><g><path d="M 22.078125 0 L 9.21875 0 L 9.21875 -70.921875 L 27.546875 -70.921875 L 45.5 -18.765625 L 46.515625 -18.765625 L 64.375 -70.921875 L 82.265625 -70.921875 L 82.265625 0 L 68.984375 0 L 68.984375 -46.859375 L 67.765625 -47.046875 L 51.375 0 L 39.671875 0 L 23.28125 -47.046875 L 22.078125 -46.859375 Z M 22.078125 0 "/></g></g></g><g fill="#ffffff" fill-opacity="1"><g transform="translate(432.058456, 391.269581)"><g><path d="M 23.234375 0 L 9.21875 0 L 9.21875 -70.921875 L 23.234375 -70.921875 Z M 23.234375 0 "/></g></g></g><g fill="#ffffff" fill-opacity="1"><g transform="translate(464.553495, 391.269581)"><g><path d="M 22.796875 0 L 9.21875 0 L 9.21875 -70.921875 L 25.265625 -70.921875 L 53.75 -25.21875 L 55 -25.421875 L 55 -70.921875 L 68.5 -70.921875 L 68.5 0 L 54.140625 0 L 24.015625 -48.796875 L 22.796875 -48.609375 Z M 22.796875 0 "/></g></g></g><g fill="#ffffff" fill-opacity="1"><g transform="translate(542.347589, 391.269581)"><g><path d="M 34.4375 1.015625 C 28.519531 1.015625 23.398438 -0.332031 19.078125 -3.03125 C 14.765625 -5.726562 11.4375 -9.800781 9.09375 -15.25 C 6.75 -20.695312 5.578125 -27.429688 5.578125 -35.453125 C 5.578125 -43.546875 6.984375 -50.316406 9.796875 -55.765625 C 12.609375 -61.210938 16.507812 -65.269531 21.5 -67.9375 C 26.5 -70.601562 32.300781 -71.9375 38.90625 -71.9375 C 45.695312 -71.9375 51.484375 -70.675781 56.265625 -68.15625 C 61.054688 -65.632812 64.421875 -61.882812 66.359375 -56.90625 L 56.125 -50.6875 L 54.90625 -50.734375 C 53.457031 -53.910156 51.414062 -56.222656 48.78125 -57.671875 C 46.144531 -59.128906 42.851562 -59.859375 38.90625 -59.859375 C 32.789062 -59.859375 28.113281 -57.925781 24.875 -54.0625 C 21.644531 -50.195312 20.03125 -43.992188 20.03125 -35.453125 C 20.03125 -26.890625 21.539062 -20.664062 24.5625 -16.78125 C 27.59375 -12.90625 32.066406 -10.96875 37.984375 -10.96875 C 43.085938 -10.96875 46.851562 -12.113281 49.28125 -14.40625 C 51.707031 -16.695312 52.921875 -20.125 52.921875 -24.6875 L 52.921875 -27.75 L 36.140625 -27.75 L 36.140625 -39.140625 L 66.84375 -39.140625 L 66.84375 0 L 53.453125 0 L 53.453125 -9.5 L 52.4375 -9.65625 C 50.976562 -6.257812 48.769531 -3.628906 45.8125 -1.765625 C 42.851562 0.0859375 39.0625 1.015625 34.4375 1.015625 Z M 34.4375 1.015625 "/></g></g></g><g fill="#ffffff" fill-opacity="1"><g transform="translate(239.325196, 492.771763)"><g><path d="M 35.515625 1.15625 C 29.960938 1.15625 25.019531 0.472656 20.6875 -0.890625 C 16.363281 -2.265625 12.753906 -4.066406 9.859375 -6.296875 C 6.972656 -8.523438 4.765625 -10.972656 3.234375 -13.640625 L 11.953125 -24.28125 L 13.3125 -24.28125 C 15.726562 -20.695312 18.789062 -17.84375 22.5 -15.71875 C 26.207031 -13.601562 30.546875 -12.546875 35.515625 -12.546875 C 39.753906 -12.546875 42.953125 -13.441406 45.109375 -15.234375 C 47.265625 -17.023438 48.34375 -19.492188 48.34375 -22.640625 C 48.34375 -24.535156 47.992188 -26.125 47.296875 -27.40625 C 46.609375 -28.6875 45.457031 -29.78125 43.84375 -30.6875 C 42.238281 -31.601562 40.066406 -32.390625 37.328125 -33.046875 L 27.015625 -35.40625 C 19.816406 -37.050781 14.453125 -39.78125 10.921875 -43.59375 C 7.398438 -47.414062 5.640625 -52.378906 5.640625 -58.484375 C 5.640625 -63.015625 6.769531 -66.992188 9.03125 -70.421875 C 11.300781 -73.859375 14.601562 -76.523438 18.9375 -78.421875 C 23.269531 -80.328125 28.445312 -81.28125 34.46875 -81.28125 C 40.644531 -81.28125 45.9375 -80.46875 50.34375 -78.84375 C 54.75 -77.21875 58.46875 -74.722656 61.5 -71.359375 L 53.65625 -60.625 L 52.28125 -60.625 C 50.019531 -63 47.425781 -64.78125 44.5 -65.96875 C 41.582031 -67.15625 38.238281 -67.75 34.46875 -67.75 C 30.125 -67.75 26.816406 -66.976562 24.546875 -65.4375 C 22.285156 -63.90625 21.15625 -61.785156 21.15625 -59.078125 C 21.15625 -56.554688 21.945312 -54.546875 23.53125 -53.046875 C 25.125 -51.554688 27.878906 -50.390625 31.796875 -49.546875 L 42.3125 -47.359375 C 50.09375 -45.710938 55.738281 -42.925781 59.25 -39 C 62.757812 -35.070312 64.515625 -29.945312 64.515625 -23.625 C 64.515625 -18.613281 63.4375 -14.253906 61.28125 -10.546875 C 59.125 -6.835938 55.867188 -3.957031 51.515625 -1.90625 C 47.171875 0.132812 41.835938 1.15625 35.515625 1.15625 Z M 35.515625 1.15625 "/></g></g></g><g fill="#ffffff" fill-opacity="1"><g transform="translate(308.161222, 492.771763)"><g><path d="M 43.6875 1.15625 C 36.34375 1.15625 29.863281 -0.34375 24.25 -3.34375 C 18.644531 -6.34375 14.25 -10.921875 11.0625 -17.078125 C 7.882812 -23.234375 6.296875 -30.894531 6.296875 -40.0625 C 6.296875 -49.238281 7.882812 -56.90625 11.0625 -63.0625 C 14.25 -69.21875 18.644531 -73.789062 24.25 -76.78125 C 29.863281 -79.78125 36.34375 -81.28125 43.6875 -81.28125 C 51.03125 -81.28125 57.492188 -79.789062 63.078125 -76.8125 C 68.671875 -73.832031 73.046875 -69.253906 76.203125 -63.078125 C 79.367188 -56.910156 80.953125 -49.238281 80.953125 -40.0625 C 80.953125 -30.894531 79.367188 -23.222656 76.203125 -17.046875 C 73.046875 -10.867188 68.671875 -6.289062 63.078125 -3.3125 C 57.492188 -0.332031 51.03125 1.15625 43.6875 1.15625 Z M 43.6875 -12.609375 C 50.476562 -12.609375 55.664062 -14.789062 59.25 -19.15625 C 62.832031 -23.519531 64.625 -30.488281 64.625 -40.0625 C 64.625 -49.632812 62.832031 -56.613281 59.25 -61 C 55.664062 -65.382812 50.476562 -67.578125 43.6875 -67.578125 C 36.851562 -67.578125 31.632812 -65.382812 28.03125 -61 C 24.4375 -56.613281 22.640625 -49.632812 22.640625 -40.0625 C 22.640625 -30.488281 24.4375 -23.519531 28.03125 -19.15625 C 31.632812 -14.789062 36.851562 -12.609375 43.6875 -12.609375 Z M 43.6875 -12.609375 "/></g></g></g><g fill="#ffffff" fill-opacity="1"><g transform="translate(395.466786, 492.771763)"><g><path d="M 43.6875 1.15625 C 36.34375 1.15625 29.863281 -0.34375 24.25 -3.34375 C 18.644531 -6.34375 14.25 -10.921875 11.0625 -17.078125 C 7.882812 -23.234375 6.296875 -30.894531 6.296875 -40.0625 C 6.296875 -49.238281 7.882812 -56.90625 11.0625 -63.0625 C 14.25 -69.21875 18.644531 -73.789062 24.25 -76.78125 C 29.863281 -79.78125 36.34375 -81.28125 43.6875 -81.28125 C 51.03125 -81.28125 57.492188 -79.789062 63.078125 -76.8125 C 68.671875 -73.832031 73.046875 -69.253906 76.203125 -63.078125 C 79.367188 -56.910156 80.953125 -49.238281 80.953125 -40.0625 C 80.953125 -30.894531 79.367188 -23.222656 76.203125 -17.046875 C 73.046875 -10.867188 68.671875 -6.289062 63.078125 -3.3125 C 57.492188 -0.332031 51.03125 1.15625 43.6875 1.15625 Z M 43.6875 -12.609375 C 50.476562 -12.609375 55.664062 -14.789062 59.25 -19.15625 C 62.832031 -23.519531 64.625 -30.488281 64.625 -40.0625 C 64.625 -49.632812 62.832031 -56.613281 59.25 -61 C 55.664062 -65.382812 50.476562 -67.578125 43.6875 -67.578125 C 36.851562 -67.578125 31.632812 -65.382812 28.03125 -61 C 24.4375 -56.613281 22.640625 -49.632812 22.640625 -40.0625 C 22.640625 -30.488281 24.4375 -23.519531 28.03125 -19.15625 C 31.632812 -14.789062 36.851562 -12.609375 43.6875 -12.609375 Z M 43.6875 -12.609375 "/></g></g></g><g fill="#ffffff" fill-opacity="1"><g transform="translate(482.77235, 492.771763)"><g><path d="M 25.765625 0 L 10.40625 0 L 10.40625 -80.125 L 28.5625 -80.125 L 60.734375 -28.5 L 62.15625 -28.71875 L 62.15625 -80.125 L 77.390625 -80.125 L 77.390625 0 L 61.171875 0 L 27.125 -55.140625 L 25.765625 -54.921875 Z M 25.765625 0 "/></g></g></g></svg>